<svg id="SvgjsSvg1065" width="288" height="288" xmlns="http://www.w3.org/2000/svg" version="1.1" xmlns:xlink="http://www.w3.org/1999/xlink" xmlns:svgjs="http://svgjs.com/svgjs"><g id="SvgjsG1072" transform="matrix(0.9167,0,0,0.9167,11.995200000000011,11.995200000000011)"><circle id="SvgjsCircle1073" r="144" cx="144" cy="144"></circle><rect id="SvgjsRect1074" width="154" height="154" x="134" y="134" rx="10" ry="10"></rect></g><defs id="SvgjsDefs1066"></defs><g id="SvgjsG1067" transform="matrix(0.46520000000000006,0,0,0.46520000000000006,77.01233429565428,77.02024682388304)"><svg xmlns="http://www.w3.org/2000/svg" viewBox="0 0 424.76 339.64" width="288" height="288"><g data-name="IBM® Call for Code Founding Partner lockup" fill="#000000" class="color000 svgShape"><path fill="#ffffff" d="M157.9,410.7c0-12.35,5.56-19.34,14.89-19.34,6.15,0,10.39,3,12.72,8.1l-3.6,2.18a9.3,9.3,0,0,0-9.12-6.31c-6.36,0-10.12,5-10.12,12.61v5.51c0,7.58,3.76,12.19,10.12,12.19a9.59,9.59,0,0,0,9.43-6.67l3.55,2.22a13.61,13.61,0,0,1-13,8.43C163.46,429.62,157.9,423.05,157.9,410.7ZM212.11,429c-3.12,0-4.39-1.91-4.71-4.45h-.27c-1.16,3.34-4.08,5.09-7.89,5.09-5.78,0-9.17-3.18-9.17-8.27s3.71-8,11.66-8h5.4v-2.7c0-3.87-2.12-6-6.46-6a7.62,7.62,0,0,0-6.94,4.08l-2.55-2.39c1.49-2.91,4.77-5.35,9.7-5.35,6.57,0,10.49,3.45,10.49,9.22v15h3.13V429Zm-5-8v-4.5h-5.61c-4.83,0-7,1.48-7,4.13v1.11c0,2.71,2.12,4.24,5.41,4.24C204.11,426,207.13,423.84,207.13,421Zm17.92,8a4.15,4.15,0,0,1-4.51-4.4V389.77h4.24v35.5h4V429Zm14.15,0a4.15,4.15,0,0,1-4.51-4.4V389.77h4.24v35.5h4V429ZM261,405.35h-4.45v-3.71H261v-5.51c0-3.77,2-6.36,6-6.36h4.13v3.71h-5.88v8.16h5.88v3.71h-5.88V429H261Zm13.46,10c0-8.69,5-14.31,12.35-14.31s12.35,5.62,12.35,14.31-5,14.31-12.35,14.31S274.44,424,274.44,415.31Zm20.14,2v-3.92c0-5.78-3.23-8.59-7.79-8.59s-7.79,2.81-7.79,8.59v3.92c0,5.78,3.23,8.58,7.79,8.58S294.58,423.05,294.58,417.27ZM306.14,429V401.64h4.24v5h.26c1-2.6,3.45-5,7.9-5h1.64v4.24h-2.49c-4.56,0-7.31,2-7.31,4.55V429Zm28.4-18.28c0-12.35,5.57-19.34,14.9-19.34,6.14,0,10.38,3,12.71,8.1l-3.6,2.18a9.29,9.29,0,0,0-9.11-6.31c-6.36,0-10.13,5-10.13,12.61v5.51c0,7.58,3.77,12.19,10.13,12.19a9.61,9.61,0,0,0,9.43-6.67l3.55,2.22a13.62,13.62,0,0,1-13,8.43C340.11,429.62,334.54,423.05,334.54,410.7Zm32.33,4.61c0-8.69,5-14.31,12.35-14.31s12.35,5.62,12.35,14.31-5,14.31-12.35,14.31S366.87,424,366.87,415.31Zm20.14,2v-3.92c0-5.78-3.23-8.59-7.79-8.59s-7.79,2.81-7.79,8.59v3.92c0,5.78,3.23,8.58,7.79,8.58S387,423.05,387,417.27Zm29,7.26h-.21a8.25,8.25,0,0,1-8,5.09c-6.84,0-11.13-5.57-11.13-14.31S401,401,407.84,401c3.76,0,6.57,1.64,8,5.09h.21V389.77h4.24V429h-4.24Zm0-4.29V410.06c0-3-3.17-5.24-7-5.24-4.77,0-7.74,3.28-7.74,8.16v4.66c0,4.88,3,8.16,7.74,8.16C412.88,425.8,416.05,423.79,416.05,420.24Zm11.24-4.93c0-8.69,4.88-14.31,12.3-14.31s11.81,5.62,11.81,13.35v2H431.74v1.27c0,4.72,3,8.27,8.11,8.27a7.93,7.93,0,0,0,7.53-4.72l3,2.17c-1.75,3.71-5.67,6.26-10.81,6.26C432.17,429.62,427.29,424,427.29,415.31Zm4.45-2.49v.37h15.11v-.58c0-4.83-2.92-8.06-7.26-8.06C435,404.55,431.74,408.05,431.74,412.82ZM158,486.4v-37h22.05v3.92h-17.6v12.4h16.06v3.93H162.48V486.4Zm25.87-13.67c0-8.69,5-14.31,12.34-14.31s12.35,5.62,12.35,14.31-5,14.31-12.35,14.31S183.9,481.42,183.9,472.73Zm20.13,2v-3.92c0-5.78-3.23-8.59-7.79-8.59s-7.79,2.81-7.79,8.59v3.92c0,5.78,3.24,8.58,7.79,8.58S204,480.47,204,474.69ZM232.44,482h-.21a7.6,7.6,0,0,1-7.69,5.09c-5.61,0-9.22-3.82-9.22-10.44V459.06h4.24v16.8c0,4.87,2.18,7.36,6.26,7.36,3.34,0,6.62-1.64,6.62-5.24V459.06h4.24V486.4h-4.24Zm13.25,4.45V459.06h4.24v4.45h.21a7.76,7.76,0,0,1,7.74-5.09c5.62,0,9.17,3.82,9.17,10.44V486.4h-4.24V469.6c0-4.87-2.12-7.36-6.2-7.36-3.39,0-6.68,1.69-6.68,5.19v19ZM293.28,482h-.21a8.25,8.25,0,0,1-8,5.09c-6.84,0-11.13-5.57-11.13-14.31s4.29-14.31,11.13-14.31c3.76,0,6.57,1.64,8,5.09h.21V447.19h4.24V486.4h-4.24Zm0-4.29V467.48c0-3-3.18-5.24-7-5.24-4.77,0-7.74,3.28-7.74,8.16v4.66c0,4.88,3,8.16,7.74,8.16C290.1,483.22,293.28,481.21,293.28,477.66Zm12.78-27.4v-.69c0-1.43.79-2.38,2.59-2.38s2.6.95,2.6,2.38v.69c0,1.43-.79,2.38-2.6,2.38S306.06,451.69,306.06,450.26Zm.48,8.8h4.23V486.4h-4.23Zm13.25,27.34V459.06H324v4.45h.22a7.73,7.73,0,0,1,7.73-5.09c5.62,0,9.17,3.82,9.17,10.44V486.4H336.9V469.6c0-4.87-2.12-7.36-6.2-7.36-3.39,0-6.68,1.69-6.68,5.19v19Zm39.9,11.24c-8.53,0-12-2.44-12-6.73,0-3,1.65-4.56,4.35-5.3V485a4,4,0,0,1-2.44-3.81c0-2.76,2-4.08,4.72-4.77v-.21a8.89,8.89,0,0,1-5.14-8.38c0-5.56,4.08-9.43,10.28-9.43a12.23,12.23,0,0,1,5.19,1.06V459c0-2.12.9-3.65,3.18-3.65h4.08v3.71h-5.19v1.74a9.1,9.1,0,0,1,3.12,7.05c0,5.57-4.08,9.44-10.33,9.44a14,14,0,0,1-2.65-.27c-1.8.48-3.6,1.38-3.6,3.07s1.69,2.07,4.18,2.07h5.83c6.79,0,9.7,2.76,9.7,7.26C372.94,495,368.49,497.64,359.69,497.64Zm3.61-11.5h-9.12a3.8,3.8,0,0,0-2.54,3.71c0,2.38,1.64,4.34,5.93,4.34h3.92c4.72,0,7.48-1.48,7.48-4.45C369,487.57,367.54,486.14,363.3,486.14Zm2.06-17.54v-1.49c0-3.6-2.28-5.3-5.88-5.3s-5.88,1.7-5.88,5.3v1.49c0,3.6,2.28,5.29,5.88,5.29S365.36,472.2,365.36,468.6Zm23.32,17.8v-37h14.74c6.62,0,10.33,4.08,10.33,10.6s-3.71,10.6-10.33,10.6H393.14V486.4Zm4.46-19.71h10.28c3.49,0,5.56-1.91,5.56-5.3v-2.76c0-3.39-2.07-5.3-5.56-5.3H393.14Zm46.58,19.71c-3.12,0-4.4-1.91-4.71-4.45h-.27c-1.17,3.34-4.08,5.09-7.9,5.09-5.77,0-9.16-3.18-9.16-8.27s3.71-8,11.65-8h5.41v-2.7c0-3.87-2.12-6-6.46-6a7.65,7.65,0,0,0-6.95,4.08l-2.54-2.39c1.48-2.91,4.77-5.35,9.7-5.35,6.57,0,10.49,3.45,10.49,9.22v15.05h3.13v3.71Zm-5-7.95V474h-5.62c-4.82,0-7,1.48-7,4.13v1.11c0,2.71,2.12,4.24,5.4,4.24C431.72,483.43,434.74,481.26,434.74,478.45Zm13.41,7.95V459.06h4.24v5h.27c.95-2.6,3.44-5,7.89-5h1.64v4.24H459.7c-4.55,0-7.31,2-7.31,4.55V486.4Zm25.7,0a4.17,4.17,0,0,1-4.5-4.5V462.77h-4.5v-3.71h2.54c1.8,0,2.38-.64,2.38-2.49v-5.09h3.82v7.58h6v3.71h-6v19.92h5.56v3.71Zm12.57,0V459.06h4.24v4.45h.21a7.73,7.73,0,0,1,7.73-5.09c5.62,0,9.17,3.82,9.17,10.44V486.4h-4.24V469.6c0-4.87-2.12-7.36-6.2-7.36-3.39,0-6.67,1.69-6.67,5.19v19Zm28.08-13.67c0-8.69,4.88-14.31,12.3-14.31s11.82,5.62,11.82,13.35v2H519v1.27c0,4.72,3,8.27,8.1,8.27a7.93,7.93,0,0,0,7.53-4.72l3,2.17c-1.75,3.71-5.67,6.26-10.81,6.26C519.38,487,514.5,481.42,514.5,472.73Zm4.46-2.49v.37h15.1V470c0-4.83-2.91-8.06-7.26-8.06C522.19,462,519,465.47,519,470.24Zm26.66,16.16V459.06h4.24v5h.26c1-2.6,3.44-5,7.9-5h1.64v4.24h-2.49c-4.56,0-7.31,2-7.31,4.55V486.4Z" data-name="Call for Code Founding Partner" transform="translate(-157.9 -158)" class="colorfff svgShape"></path><path fill="#ffffff" d="M565.85,306.79a8.41,8.41,0,1,1,8.4,8.66A8.43,8.43,0,0,1,565.85,306.79Zm14.83.55v-1.09a6.43,6.43,0,0,0-12.85,0v1.09a6.43,6.43,0,0,0,12.85,0ZM573,311.25h-2.14v-8.78h4a2.66,2.66,0,0,1,3,2.77,2.61,2.61,0,0,1-1.59,2.65l2,3.36h-2.35l-1.64-3H573Zm1.6-4.62c.67,0,1-.3,1-.93v-.63c0-.63-.38-.92-1-.92H573v2.48ZM158,305h77v10H158Zm0-11h77V284H158Zm22-21h33V263H180Zm0-21h33V242H180Zm0-21h33V221H180Zm33-31H180v10h33Zm-55-11h77V179H158Zm0-21h77V158H158Zm88,137v10h81a41.85,41.85,0,0,0,27.19-10Zm0-21v10H363.37a42,42,0,0,0,4.17-10Zm22-21v10h33V263Zm0-42h0v10h87.29a42.4,42.4,0,0,0,8.07-10Zm99.54-32a42,42,0,0,0-4.17-10H246v10H367.54ZM268,200v10h33V200Zm64,10h35.78A42.26,42.26,0,0,0,369,200H332Zm0,53v10h37a42.26,42.26,0,0,0-1.22-10Zm23.29-21H268v10h95.36A42.4,42.4,0,0,0,355.29,242Zm-1.1-74A41.85,41.85,0,0,0,327,158H246v10H354.19ZM378,315h55V305H378Zm0-21h55V284H378Zm22-21h33V263H400Zm0-21h33V242H400Zm99,63h55V305H499Zm0-21h55V284H499Zm0-21h33V263H499Zm33-31H499v10h33Zm-33-11h33V221H470.14l-3.46,10h29l3.36-9.52Zm33-31H477.43L474,210h58Zm-40-42-3.47,10H554V158ZM466,315l3.51-9.95h-7ZM458.61,294H473.4l3.53-10H455.07Zm-7.42-21h29.62l3.53-10H447.66Zm-7.41-21h44.44l3.53-10h-51.5ZM400,210h58l-3.47-10H400Zm81.25-21H554V179H484.71Zm-34-10H378v10h72.75ZM440,158H378v10h65.47Zm25.33,73-3.47-10H400v10h33v-9.49l3.36,9.49Z" data-name="IBM®" transform="translate(-157.9 -158)" class="colorfff svgShape"></path></g></svg></g></svg>